HIERARCHY
ROOT Hips
{
	OFFSET 0.000000 87.230942 0.000000
	CHANNELS 6 Xposition Yposition Zposition Xrotation Yrotation Zrotation
	JOINT Pelvis
	{
		OFFSET 0.000000 0.000000 0.000000
		CHANNELS 3 Xrotation Yrotation Zrotation
		JOINT LeftUpLeg
		{
			OFFSET 12.017000 -9.376404 -2.439400
			CHANNELS 3 Xrotation Yrotation Zrotation
			JOINT LeftLeg
			{
				OFFSET -0.007312 -32.846973 2.110600
				CHANNELS 3 Xrotation Yrotation Zrotation
				JOINT LeftFoot
				{
					OFFSET 0.007312 -32.065170 -0.570400
					CHANNELS 3 Xrotation Yrotation Zrotation
					JOINT LeftToeBase
					{
						OFFSET 0.728300 -11.045900 13.180700
						CHANNELS 3 Xrotation Yrotation Zrotation
						End Site
						{
							OFFSET 0.000000 17.212589 0.000000
						}
					}
				}
				JOINT LeftPantLeg
				{
					OFFSET 0.002788 -16.709013 -3.143600
					CHANNELS 3 Xrotation Yrotation Zrotation
					End Site
					{
						OFFSET -0.605125 24.528742 0.000000
					}
				}
			}
			JOINT Left_Butt
			{
				OFFSET -6.630234 1.326584 -3.183700
				CHANNELS 3 Xrotation Yrotation Zrotation
				End Site
				{
					OFFSET -0.498041 20.188049 0.000000
				}
			}
		}
		JOINT RightUpLeg
		{
			OFFSET -11.717000 -9.376404 -2.439400
			CHANNELS 3 Xrotation Yrotation Zrotation
			JOINT RightLeg
			{
				OFFSET -0.003241 -32.846912 2.110600
				CHANNELS 3 Xrotation Yrotation Zrotation
				JOINT RightFoot
				{
					OFFSET 0.003241 -32.065136 -0.570500
					CHANNELS 3 Xrotation Yrotation Zrotation
					JOINT RightToeBase
					{
						OFFSET -0.728300 -11.045901 13.180700
						CHANNELS 3 Xrotation Yrotation Zrotation
						End Site
						{
							OFFSET 0.000000 17.212593 0.000000
						}
					}
				}
				JOINT RightPantLeg
				{
					OFFSET 0.008142 -16.708982 -3.143700
					CHANNELS 3 Xrotation Yrotation Zrotation
					End Site
					{
						OFFSET 0.605088 24.528715 0.000000
					}
				}
			}
			JOINT Right_Butt
			{
				OFFSET 6.630732 1.326584 -3.183700
				CHANNELS 3 Xrotation Yrotation Zrotation
				End Site
				{
					OFFSET 0.498015 20.188240 0.000000
				}
			}
		}
	}
	JOINT Spine
	{
		OFFSET -0.062400 7.848404 3.918300
		CHANNELS 3 Xrotation Yrotation Zrotation
		JOINT Spine1
		{
			OFFSET -0.072800 11.422302 0.713400
			CHANNELS 3 Xrotation Yrotation Zrotation
			JOINT Spine2
			{
				OFFSET -0.083200 13.054001 -1.931600
				CHANNELS 3 Xrotation Yrotation Zrotation
				JOINT Neck
				{
					OFFSET -0.092200 14.121796 -5.138800
					CHANNELS 3 Xrotation Yrotation Zrotation
					JOINT Head
					{
						OFFSET 0.000200 10.447403 -0.842000
						CHANNELS 3 Xrotation Yrotation Zrotation
						JOINT Visor
						{
							OFFSET 0.457100 25.671204 16.550400
							CHANNELS 3 Xrotation Yrotation Zrotation
							End Site
							{
								OFFSET 0.000000 26.061493 0.000000
							}
						}
						JOINT HairMidA
						{
							OFFSET 0.459400 31.585403 8.437400
							CHANNELS 3 Xrotation Yrotation Zrotation
							End Site
							{
								OFFSET 0.000000 26.061493 0.000000
							}
						}
						JOINT HairMidB
						{
							OFFSET 0.464000 33.309204 -8.389700
							CHANNELS 3 Xrotation Yrotation Zrotation
							End Site
							{
								OFFSET 0.000000 26.061493 0.000000
							}
						}
						JOINT HairMidC
						{
							OFFSET 0.466600 27.991196 -17.375099
							CHANNELS 3 Xrotation Yrotation Zrotation
							End Site
							{
								OFFSET 0.000000 26.061493 0.000000
							}
						}
						JOINT HairMidD
						{
							OFFSET 0.467700 17.888092 -21.169500
							CHANNELS 3 Xrotation Yrotation Zrotation
							End Site
							{
								OFFSET 0.000000 26.061493 0.000000
							}
						}
						JOINT HairMidE
						{
							OFFSET 5.325700 3.514603 -14.369699
							CHANNELS 3 Xrotation Yrotation Zrotation
							End Site
							{
								OFFSET 0.000000 26.061493 0.000000
							}
						}
						JOINT HairMidF
						{
							OFFSET -4.394100 3.514603 -14.372400
							CHANNELS 3 Xrotation Yrotation Zrotation
							End Site
							{
								OFFSET 0.000000 26.061493 0.000000
							}
						}
						JOINT HairLeftA
						{
							OFFSET 15.319900 25.746506 2.623300
							CHANNELS 3 Xrotation Yrotation Zrotation
							End Site
							{
								OFFSET 0.000000 26.061493 0.000000
							}
						}
						JOINT HairLeftB
						{
							OFFSET 12.619500 29.289398 -8.731499
							CHANNELS 3 Xrotation Yrotation Zrotation
							End Site
							{
								OFFSET 0.000000 26.061493 0.000000
							}
						}
						JOINT HairLeftC
						{
							OFFSET 15.714800 15.959900 2.909800
							CHANNELS 3 Xrotation Yrotation Zrotation
							End Site
							{
								OFFSET 0.000000 26.061493 0.000000
							}
						}
						JOINT HairLeftD
						{
							OFFSET 16.101700 18.437408 -7.553200
							CHANNELS 3 Xrotation Yrotation Zrotation
							End Site
							{
								OFFSET 0.000000 26.061493 0.000000
							}
						}
						JOINT HairLeftE
						{
							OFFSET 9.731900 17.915009 -18.316799
							CHANNELS 3 Xrotation Yrotation Zrotation
							End Site
							{
								OFFSET 0.000000 26.061493 0.000000
							}
						}
						JOINT HairLeftF
						{
							OFFSET 11.204300 4.953598 -9.668100
							CHANNELS 3 Xrotation Yrotation Zrotation
							End Site
							{
								OFFSET 0.000000 26.061493 0.000000
							}
						}
						JOINT HairRightA
						{
							OFFSET -14.397900 25.746307 2.615100
							CHANNELS 3 Xrotation Yrotation Zrotation
							End Site
							{
								OFFSET 0.000000 26.061493 0.000000
							}
						}
						JOINT HairRightB
						{
							OFFSET -11.691200 29.289200 -8.738199
							CHANNELS 3 Xrotation Yrotation Zrotation
							End Site
							{
								OFFSET 0.000000 26.061493 0.000000
							}
						}
						JOINT HairRightC
						{
							OFFSET -14.792900 15.959702 2.901400
							CHANNELS 3 Xrotation Yrotation Zrotation
							End Site
							{
								OFFSET 0.000000 26.061493 0.000000
							}
						}
						JOINT HairRightD
						{
							OFFSET -15.174000 18.437195 -7.561900
							CHANNELS 3 Xrotation Yrotation Zrotation
							End Site
							{
								OFFSET 0.000000 26.061493 0.000000
							}
						}
						JOINT HairRightE
						{
							OFFSET -8.798200 17.914902 -18.322001
							CHANNELS 3 Xrotation Yrotation Zrotation
							End Site
							{
								OFFSET 0.000000 26.061493 0.000000
							}
						}
						JOINT HairRightF
						{
							OFFSET -10.275200 4.953506 -9.674099
							CHANNELS 3 Xrotation Yrotation Zrotation
							End Site
							{
								OFFSET 0.000000 26.061493 0.000000
							}
						}
					}
				}
				JOINT LeftShoulder
				{
					OFFSET 5.133500 7.341202 -1.867600
					CHANNELS 3 Xrotation Yrotation Zrotation
					JOINT LeftArm
					{
						OFFSET 8.072663 0.936867 -2.176600
						CHANNELS 3 Xrotation Yrotation Zrotation
						JOINT LeftForeArm
						{
							OFFSET 31.271999 0.000000 0.000000
							CHANNELS 3 Xrotation Yrotation Zrotation
							JOINT LeftHand
							{
								OFFSET 31.771030 0.000000 0.000000
								CHANNELS 3 Xrotation Yrotation Zrotation
								JOINT LeftHandThumb1
								{
									OFFSET 2.886520 -2.557846 4.416640
									CHANNELS 3 Xrotation Yrotation Zrotation
									JOINT LeftHandThumb2
									{
										OFFSET 2.371025 -1.368912 1.368911
										CHANNELS 3 Xrotation Yrotation Zrotation
										JOINT LeftHandThumb3
										{
											OFFSET 2.243378 -1.295212 1.295213
											CHANNELS 3 Xrotation Yrotation Zrotation
											End Site
											{
												OFFSET -0.332611 2.876945 0.020015
											}
										}
									}
								}
								JOINT LeftHandIndex1
								{
									OFFSET 8.568985 -0.641945 3.119977
									CHANNELS 3 Xrotation Yrotation Zrotation
									JOINT LeftHandIndex2
									{
										OFFSET 3.348503 0.000000 0.000000
										CHANNELS 3 Xrotation Yrotation Zrotation
										JOINT LeftHandIndex3
										{
											OFFSET 3.314552 0.000000 0.000000
											CHANNELS 3 Xrotation Yrotation Zrotation
											End Site
											{
												OFFSET -1.032898 3.075485 0.678796
											}
										}
									}
								}
								JOINT LeftHandMiddle1
								{
									OFFSET 8.124603 0.000000 0.000000
									CHANNELS 3 Xrotation Yrotation Zrotation
									JOINT LeftHandMiddle2
									{
										OFFSET 4.166275 0.000000 0.000000
										CHANNELS 3 Xrotation Yrotation Zrotation
										JOINT LeftHandMiddle3
										{
											OFFSET 3.018135 0.000000 0.000000
											CHANNELS 3 Xrotation Yrotation Zrotation
											End Site
											{
												OFFSET -1.032700 2.767982 0.617226
											}
										}
									}
								}
								JOINT LeftHandRing1
								{
									OFFSET 8.571686 -0.031357 -2.884048
									CHANNELS 3 Xrotation Yrotation Zrotation
									JOINT LeftHandRing2
									{
										OFFSET 3.671181 0.000000 0.000000
										CHANNELS 3 Xrotation Yrotation Zrotation
										JOINT LeftHandRing3
										{
											OFFSET 2.728851 0.000000 0.000000
											CHANNELS 3 Xrotation Yrotation Zrotation
											End Site
											{
												OFFSET -0.815796 2.539223 0.577389
											}
										}
									}
								}
								JOINT LeftHandPinky1
								{
									OFFSET 7.854515 -0.675232 -5.213020
									CHANNELS 3 Xrotation Yrotation Zrotation
									JOINT LeftHandPinky2
									{
										OFFSET 3.068596 0.000000 0.000000
										CHANNELS 3 Xrotation Yrotation Zrotation
										JOINT LeftHandPinky3
										{
											OFFSET 2.396042 0.000000 0.000000
											CHANNELS 3 Xrotation Yrotation Zrotation
											End Site
											{
												OFFSET -0.524597 2.267998 0.567429
											}
										}
									}
								}
							}
							JOINT LeftSleeve
							{
								OFFSET 19.684509 -0.200119 0.476146
								CHANNELS 3 Xrotation Yrotation Zrotation
								End Site
								{
									OFFSET -0.031017 25.731133 -0.002868
								}
							}
						}
					}
				}
				JOINT RightShoulder
				{
					OFFSET -4.395900 7.341202 -1.870200
					CHANNELS 3 Xrotation Yrotation Zrotation
					JOINT RightArm
					{
						OFFSET -8.071453 0.936867 -2.181100
						CHANNELS 3 Xrotation Yrotation Zrotation
						JOINT RightForeArm
						{
							OFFSET -31.272011 0.000000 0.000000
							CHANNELS 3 Xrotation Yrotation Zrotation
							JOINT RightHand
							{
								OFFSET -31.771019 0.000000 0.000000
								CHANNELS 3 Xrotation Yrotation Zrotation
								JOINT RightHandThumb1
								{
									OFFSET -2.886520 -2.557808 4.416626
									CHANNELS 3 Xrotation Yrotation Zrotation
									JOINT RightHandThumb2
									{
										OFFSET -2.371056 -1.368927 1.368928
										CHANNELS 3 Xrotation Yrotation Zrotation
										JOINT RightHandThumb3
										{
											OFFSET -2.243362 -1.295204 1.295206
											CHANNELS 3 Xrotation Yrotation Zrotation
											End Site
											{
												OFFSET 0.332642 2.876938 0.020047
											}
										}
									}
								}
								JOINT RightHandIndex1
								{
									OFFSET -8.568993 -0.641953 3.120017
									CHANNELS 3 Xrotation Yrotation Zrotation
									JOINT RightHandIndex2
									{
										OFFSET -3.348518 0.000000 0.000000
										CHANNELS 3 Xrotation Yrotation Zrotation
										JOINT RightHandIndex3
										{
											OFFSET -3.314552 0.000000 0.000000
											CHANNELS 3 Xrotation Yrotation Zrotation
											End Site
											{
												OFFSET 1.032898 3.075478 0.678804
											}
										}
									}
								}
								JOINT RightHandMiddle1
								{
									OFFSET -8.124588 0.000000 0.000000
									CHANNELS 3 Xrotation Yrotation Zrotation
									JOINT RightHandMiddle2
									{
										OFFSET -4.166275 0.000000 0.000000
										CHANNELS 3 Xrotation Yrotation Zrotation
										JOINT RightHandMiddle3
										{
											OFFSET -3.018097 0.000000 0.000000
											CHANNELS 3 Xrotation Yrotation Zrotation
											End Site
											{
												OFFSET 1.032700 2.767937 0.617197
											}
										}
									}
								}
								JOINT RightHandRing1
								{
									OFFSET -8.571747 -0.031349 -2.884061
									CHANNELS 3 Xrotation Yrotation Zrotation
									JOINT RightHandRing2
									{
										OFFSET -3.671204 0.000000 0.000000
										CHANNELS 3 Xrotation Yrotation Zrotation
										JOINT RightHandRing3
										{
											OFFSET -2.728874 0.000000 0.000000
											CHANNELS 3 Xrotation Yrotation Zrotation
											End Site
											{
												OFFSET 0.815804 2.539261 0.577413
											}
										}
									}
								}
								JOINT RightHandPinky1
								{
									OFFSET -7.854561 -0.675247 -5.212970
									CHANNELS 3 Xrotation Yrotation Zrotation
									JOINT RightHandPinky2
									{
										OFFSET -3.068550 0.000000 0.000000
										CHANNELS 3 Xrotation Yrotation Zrotation
										JOINT RightHandPinky3
										{
											OFFSET -2.395981 0.000000 0.000000
											CHANNELS 3 Xrotation Yrotation Zrotation
											End Site
											{
												OFFSET 0.524605 2.267952 0.567413
											}
										}
									}
								}
							}
							JOINT RightSleeve
							{
								OFFSET -19.684753 -0.200165 0.476065
								CHANNELS 3 Xrotation Yrotation Zrotation
								End Site
								{
									OFFSET 0.031342 25.731255 -0.002917
								}
							}
						}
					}
				}
				JOINT Hood
				{
					OFFSET 0.369700 14.447800 -5.317800
					CHANNELS 3 Xrotation Yrotation Zrotation
					JOINT Hood1
					{
						OFFSET 0.001700 -5.553802 -5.895100
						CHANNELS 3 Xrotation Yrotation Zrotation
						JOINT Hood2
						{
							OFFSET -0.000200 -8.380501 0.763600
							CHANNELS 3 Xrotation Yrotation Zrotation
							End Site
							{
								OFFSET 0.000000 8.415215 0.000000
							}
						}
					}
				}
				JOINT Left_Breast
				{
					OFFSET 5.682500 3.120102 3.188800
					CHANNELS 3 Xrotation Yrotation Zrotation
					End Site
					{
						OFFSET 0.000000 10.528564 0.000000
					}
				}
				JOINT Right_Breast
				{
					OFFSET -4.947600 3.120102 3.185900
					CHANNELS 3 Xrotation Yrotation Zrotation
					End Site
					{
						OFFSET 0.000000 10.528564 0.000000
					}
				}
				JOINT Whistle
				{
					OFFSET 0.368200 11.471298 0.095400
					CHANNELS 3 Xrotation Yrotation Zrotation
					JOINT Whistle1
					{
						OFFSET -0.002000 -6.349899 7.479800
						CHANNELS 3 Xrotation Yrotation Zrotation
						JOINT Whistle2
						{
							OFFSET -0.001300 -8.217598 4.717600
							CHANNELS 3 Xrotation Yrotation Zrotation
							End Site
							{
								OFFSET 0.000000 9.475479 0.000000
							}
						}
					}
				}
			}
		}
		JOINT Belly
		{
			OFFSET 0.212400 1.593002 3.163700
			CHANNELS 3 Xrotation Yrotation Zrotation
			End Site
			{
				OFFSET 0.000000 7.496635 0.000000
			}
		}
	}
	JOINT FitGrandmaFacialAnim_Joint
	{
		OFFSET 1.150000 -86.211197 -1.220100
		CHANNELS 3 Xrotation Yrotation Zrotation
		End Site
		{
			OFFSET 0.000000 31.666618 0.000000
		}
	}
}
MOTION
Frames: 4
Frame Time: 0.016667
0.155213 67.707901 -41.332973 16.371501 -76.648472 15.253503 0.000001 0.000001 -0.000000 -41.353599 -4.820383 24.858779 76.705695 13.327795 1.119362 -26.355854 7.576202 -30.117419 0.000000 -0.000002 -0.000000 -0.000000 0.000004 -0.000001 0.000000 0.000003 -0.000003 -48.370303 -2.494319 -17.295793 83.052116 21.432515 -5.189773 -38.488481 -0.696212 1.944778 -0.000000 -0.000000 -0.000000 -0.000002 0.000002 0.000000 0.000000 -0.000000 -0.000001 4.450183 9.321940 -3.073330 9.594762 18.344812 -7.012218 9.594759 18.344788 -7.012212 2.735903 2.537201 0.917081 2.210332 -0.400985 -2.541339 0.000000 -0.000002 0.000001 0.000000 -0.000002 0.000001 0.000000 -0.000002 0.000001 0.000000 -0.000002 0.000001 0.000000 -0.000002 0.000001 0.000000 -0.000002 0.000001 0.000000 -0.000002 0.000001 0.000000 -0.000002 0.000001 0.000000 -0.000002 0.000001 0.000000 -0.000002 0.000001 0.000000 -0.000002 0.000001 0.000000 -0.000002 0.000001 0.000000 -0.000002 0.000001 0.000000 -0.000002 0.000001 0.000000 -0.000002 0.000001 0.000000 -0.000002 0.000001 0.000000 -0.000002 0.000001 0.000000 -0.000002 0.000001 0.000000 -0.000002 0.000001 4.442671 -4.896766 0.391716 -74.044858 -32.200889 -59.779557 45.629987 -71.166418 44.297383 30.811571 -13.945440 5.324266 -19.313927 7.326458 -0.325096 17.757228 27.151365 -7.102074 -0.000000 -0.000003 0.000003 8.737630 0.556773 -27.858981 -3.246442 1.052136 -21.338375 0.000002 -0.000002 0.000000 -3.793159 6.626407 -20.382891 -1.406096 -1.003764 -21.514840 -0.000002 -0.000001 -0.000002 -8.139624 9.456991 -29.778911 1.966552 -4.844265 -27.350977 -0.000000 0.000001 -0.000001 -7.314776 11.108275 -42.805813 1.162375 -7.791613 -40.565204 0.000000 -0.000000 -0.000003 0.000001 0.000001 0.000000 3.889436 8.333831 -7.261185 -42.000240 -3.203188 27.938522 -12.789890 47.794928 2.424355 36.354187 22.263306 -26.066804 -9.151832 -3.932288 17.229565 -8.906343 -3.563902 -6.479052 -0.000000 0.000003 0.000000 -2.009635 8.213993 -5.048309 -1.625966 -0.981005 33.676538 0.000002 0.000002 0.000003 -3.382738 -5.223056 -15.049912 -1.435142 -1.099672 25.006608 0.000000 0.000003 -0.000003 -8.188939 -12.219950 -0.270460 2.472544 4.601775 34.000422 0.000000 0.000001 0.000002 -14.081789 -14.805132 6.122703 3.294884 9.546765 30.562303 -0.000001 -0.000003 0.000001 -0.000001 -0.000002 -0.000000 0.000001 0.000000 0.000001 0.000001 0.000000 0.000001 0.000001 0.000000 0.000001 0.000001 0.000000 0.000001 0.000001 0.000000 0.000001 0.000001 0.000000 0.000001 0.000001 -0.000001 0.000001 0.000001 -0.000001 0.000001 0.000000 -0.000001 -0.000000 0.000001 0.000001 -0.000000 
0.306791 67.079994 -41.663391 23.702575 -75.368685 22.014538 0.000000 0.000001 -0.000000 -45.034818 -5.535907 25.794829 77.751759 12.030721 0.888858 -26.184078 7.201339 -29.573763 0.000000 0.000000 0.000000 0.000001 -0.000002 0.000001 0.000001 0.000002 0.000001 -51.224189 -2.171128 -16.806958 84.082859 20.521338 -4.680281 -38.788241 -0.718137 2.034288 0.000000 0.000001 -0.000000 -0.000000 -0.000002 0.000001 0.000000 -0.000000 0.000001 4.556563 9.157481 -3.152834 9.805972 18.007211 -7.165119 9.805977 18.007222 -7.165120 1.927741 4.490858 1.287779 1.537583 -0.532065 -4.732037 0.000001 0.000000 0.000000 0.000001 0.000000 0.000000 0.000001 0.000000 0.000000 0.000001 0.000000 0.000000 0.000001 0.000000 0.000000 0.000001 0.000000 0.000000 0.000001 0.000000 0.000000 0.000001 0.000000 0.000000 0.000001 0.000000 0.000000 0.000001 0.000000 0.000000 0.000001 0.000000 0.000000 0.000001 0.000000 0.000000 0.000001 0.000000 0.000000 0.000001 0.000000 0.000000 0.000001 0.000000 0.000000 0.000001 0.000000 0.000000 0.000001 0.000000 0.000000 0.000001 0.000000 0.000000 0.000001 0.000000 0.000000 4.342706 -4.985467 -0.341771 -66.423275 -29.193215 -56.580498 44.445475 -70.007417 43.935807 31.304471 -11.015007 4.016406 -19.044903 6.177809 0.482006 19.312382 28.165060 -8.456588 -0.000000 0.000001 0.000001 9.294380 -0.271006 -31.038456 -3.248158 0.907456 -22.504500 0.000002 0.000002 -0.000001 -3.842864 6.742086 -20.716324 -1.447318 -1.155401 -22.951734 0.000001 0.000000 -0.000003 -8.079872 9.523679 -29.657948 1.892680 -4.850321 -27.940883 0.000001 0.000000 -0.000002 -7.803386 10.746632 -42.756574 1.095345 -7.784637 -41.809213 -0.000001 -0.000000 -0.000002 -0.000001 0.000002 0.000002 3.540740 8.113207 -5.624216 -39.216081 -4.972969 28.094467 -12.221730 46.311480 3.788288 34.197664 22.070052 -22.498759 -9.063452 -3.936854 17.210058 -8.695225 -3.775171 -6.551195 -0.000001 0.000004 0.000000 -2.062667 8.026965 -3.931500 -1.632735 -0.857249 34.503069 0.000000 0.000002 0.000000 -3.225489 -5.131288 -13.367334 -1.402169 -0.904873 26.301238 -0.000000 -0.000000 -0.000002 -7.680301 -12.230758 1.506790 2.246290 4.705191 35.492620 0.000002 0.000000 0.000001 -13.333123 -14.852460 8.352888 3.002315 9.636738 32.213908 -0.000001 0.000001 0.000002 0.000001 -0.000000 0.000001 0.000000 -0.000001 -0.000001 0.000000 -0.000001 -0.000001 0.000000 -0.000001 -0.000001 0.000000 -0.000001 -0.000001 0.000000 -0.000001 -0.000001 0.000000 -0.000001 -0.000001 0.000000 0.000003 -0.000002 0.000000 0.000003 -0.000002 0.000001 0.000001 0.000000 0.000000 0.000001 -0.000000 
0.488470 66.571129 -41.945190 29.684450 -73.839631 27.590377 -0.000000 0.000001 -0.000000 -48.571272 -6.155278 26.306388 78.414185 10.936377 0.638279 -25.761597 6.803134 -28.956191 -0.000000 -0.000000 0.000000 -0.000000 -0.000002 0.000004 0.000001 0.000001 0.000001 -53.953949 -1.727269 -16.446976 84.856597 19.515770 -4.286272 -38.955284 -0.879117 2.344598 0.000000 -0.000001 0.000000 -0.000002 0.000001 0.000000 0.000002 0.000000 -0.000001 4.663055 8.997942 -3.216203 10.016247 17.679730 -7.291489 10.016243 17.679750 -7.291499 1.141876 6.463883 1.637530 0.937891 -0.640677 -6.991574 0.000001 -0.000001 0.000001 0.000001 -0.000001 0.000001 0.000001 -0.000001 0.000001 0.000001 -0.000001 0.000001 0.000001 -0.000001 0.000001 0.000001 -0.000001 0.000001 0.000001 -0.000001 0.000001 0.000001 -0.000001 0.000001 0.000001 -0.000001 0.000001 0.000001 -0.000001 0.000001 0.000001 -0.000001 0.000001 0.000001 -0.000001 0.000001 0.000001 -0.000001 0.000001 0.000001 -0.000001 0.000001 0.000001 -0.000001 0.000001 0.000001 -0.000001 0.000001 0.000001 -0.000001 0.000001 0.000001 -0.000001 0.000001 0.000001 -0.000001 0.000001 4.231875 -4.936950 -0.833284 -58.521409 -25.699398 -53.642656 41.104543 -69.046478 41.375838 30.954171 -7.949387 3.669313 -18.695737 5.341808 1.222993 19.851248 28.173181 -9.185005 0.000000 0.000001 0.000001 9.121596 -1.933235 -33.603329 -3.251639 0.762727 -23.660885 0.000003 -0.000000 0.000002 -3.890824 6.785513 -21.931765 -1.491392 -1.304129 -24.365629 0.000001 -0.000003 0.000002 -7.771804 10.307828 -30.766454 1.809479 -4.872193 -28.906853 0.000003 -0.000003 -0.000000 -7.772700 11.953569 -44.457735 1.028301 -7.779527 -43.355326 0.000001 0.000000 -0.000001 0.000001 -0.000001 -0.000002 3.219533 7.942036 -3.888785 -35.652379 -7.358681 27.766297 -11.633902 45.311434 5.140157 31.216874 21.636485 -18.441000 -8.993640 -3.944193 17.135309 -8.463744 -3.999600 -6.613707 -0.000001 -0.000001 -0.000002 -2.142768 7.757684 -2.456757 -1.629383 -0.726827 35.289603 -0.000001 0.000004 0.000004 -3.043229 -5.002363 -11.157958 -1.372894 -0.672050 27.878655 -0.000001 0.000000 -0.000001 -7.078846 -12.195018 3.756902 1.980157 4.816483 37.201062 0.000002 0.000003 0.000000 -12.440641 -14.869026 10.893922 2.656919 9.731703 34.190021 0.000001 -0.000004 0.000001 -0.000001 -0.000000 0.000001 0.000002 0.000003 -0.000002 0.000002 0.000003 -0.000002 0.000002 0.000003 -0.000002 0.000002 0.000003 -0.000002 0.000002 0.000003 -0.000002 0.000002 0.000003 -0.000002 0.000002 0.000002 -0.000000 0.000002 0.000002 -0.000000 0.000001 -0.000001 0.000000 -0.000000 0.000001 -0.000000 
0.689447 66.189056 -42.181843 34.236894 -72.187873 31.927111 0.000001 -0.000000 0.000000 -51.807166 -6.596096 26.364079 78.695650 10.103357 0.432491 -25.178710 6.432836 -28.287780 0.000000 0.000000 0.000000 0.000002 -0.000000 -0.000001 0.000002 -0.000002 -0.000002 -56.438581 -1.144213 -16.219437 85.391817 18.425472 -4.005328 -39.013829 -1.119299 2.855042 -0.000000 0.000000 -0.000000 -0.000001 0.000000 0.000001 -0.000001 -0.000001 0.000001 4.776406 8.844687 -3.255663 10.238191 17.364538 -7.376344 10.238191 17.364547 -7.376339 0.368245 8.396667 1.955985 0.410715 -0.716192 -9.243254 0.000002 -0.000001 -0.000000 0.000002 -0.000001 -0.000000 0.000002 -0.000001 -0.000000 0.000002 -0.000001 -0.000000 0.000002 -0.000001 -0.000000 0.000002 -0.000001 -0.000000 0.000002 -0.000001 -0.000000 0.000002 -0.000001 -0.000000 0.000002 -0.000001 -0.000000 0.000002 -0.000001 -0.000000 0.000002 -0.000001 -0.000000 0.000002 -0.000001 -0.000000 0.000002 -0.000001 -0.000000 0.000002 -0.000001 -0.000000 0.000002 -0.000001 -0.000000 0.000002 -0.000001 -0.000000 0.000002 -0.000001 -0.000000 0.000002 -0.000001 -0.000000 0.000002 -0.000001 -0.000000 4.107743 -4.811339 -1.179663 -50.713048 -21.636928 -51.563198 36.144511 -68.037598 36.990225 29.863708 -5.250590 4.082331 -18.282719 4.747889 1.912510 19.476281 27.304077 -9.321540 0.000000 0.000001 0.000000 8.191141 -4.289884 -35.718105 -3.258098 0.613769 -24.845303 -0.000001 -0.000003 0.000002 -3.936837 6.766872 -23.953765 -1.539549 -1.453383 -25.791196 -0.000001 -0.000002 -0.000000 -7.141163 11.712608 -33.013053 1.716903 -4.907824 -30.228737 0.000001 -0.000006 0.000006 -7.043623 14.522686 -47.782593 0.961471 -7.775765 -45.186117 -0.000000 -0.000001 -0.000000 0.000001 0.000000 0.000000 2.932185 7.881676 -2.048408 -31.285849 -10.550637 27.298306 -11.071059 45.033326 6.402674 27.469756 20.872030 -13.854843 -8.937085 -3.951752 17.012512 -8.206386 -4.247595 -6.666315 0.000002 0.000002 -0.000002 -2.237309 7.418786 -0.626215 -1.620779 -0.585869 36.089634 -0.000001 -0.000004 0.000006 -2.842424 -4.831146 -8.446972 -1.353447 -0.403315 29.723781 0.000000 0.000000 -0.000005 -6.401999 -12.092141 6.441896 1.678098 4.929164 39.109158 0.000003 0.000002 0.000001 -11.428145 -14.820822 13.730216 2.265942 9.821400 36.452467 -0.000003 -0.000000 0.000000 0.000004 -0.000000 0.000001 -0.000001 -0.000000 -0.000001 -0.000001 -0.000000 -0.000001 -0.000001 -0.000000 -0.000001 -0.000001 -0.000000 -0.000001 -0.000001 -0.000000 -0.000001 -0.000001 -0.000000 -0.000002 -0.000001 0.000001 0.000000 -0.000001 0.000001 0.000000 -0.000000 -0.000001 0.000001 0.000001 -0.000000 0.000000 
